<?xml version="1.0" encoding="UTF-8"?>
<svg width="700pt" height="700pt" version="1.1" viewBox="0 0 700 700" xmlns="http://www.w3.org/2000/svg">
 <g>
  <path d="m192.51 96.238c-2.332-0.007812-4.5703 0.91406-6.2188 2.5625-1.6523 1.6484-2.5742 3.8906-2.5664 6.2227v349.96c-0.007812 2.332 0.91406 4.5703 2.5664 6.2188 1.6484 1.6523 3.8867 2.5742 6.2188 2.5664 2.3242-0.011719 4.5469-0.94141 6.1797-2.5859 1.6367-1.6484 2.5508-3.8789 2.543-6.1992v-349.96c0.007813-2.3203-0.90625-4.5508-2.543-6.1992-1.6328-1.6484-3.8555-2.5781-6.1797-2.5859z"/>
  <path d="m280 96.238c-2.3203 0.007813-4.543 0.9375-6.1797 2.5859-1.6367 1.6484-2.5508 3.8789-2.5391 6.1992v349.96c-0.011718 2.3203 0.90234 4.5508 2.5391 6.1992 1.6367 1.6445 3.8594 2.5742 6.1797 2.5859 2.332 0.007813 4.5742-0.91406 6.2227-2.5664 1.6484-1.6484 2.5703-3.8867 2.5625-6.2188v-349.96c0.007813-2.332-0.91406-4.5742-2.5625-6.2227-1.6484-1.6484-3.8906-2.5703-6.2227-2.5625z"/>
  <path d="m359 96.238c-1.2656-0.03125-2.5195 0.21094-3.6836 0.71094-2.1328 0.91406-3.8125 2.6406-4.6719 4.7969-0.86328 2.1562-0.82812 4.5664 0.085938 6.6992l148.75 349.96c1.8828 4.4336 6.9922 6.5117 11.434 4.6523 2.1445-0.90625 3.8438-2.625 4.7148-4.7852 0.875-2.1562 0.85156-4.5742-0.0625-6.7148l-148.75-349.95c-1.3281-3.168-4.3867-5.2656-7.8164-5.3633z"/>
 </g>
</svg>
