<?xml version="1.0" encoding="UTF-8"?>
<svg width="700pt" height="700pt" version="1.1" viewBox="0 0 700 700" xmlns="http://www.w3.org/2000/svg">
 <path d="m551.69 404.23c-5.1797-37.59-35.699-46.363-50.352-50.586-2.2852-0.65234-4.2461-1.2148-5.7852-1.7969-9.8477-3.6875-42.375-16.309-74.082-30.055-21.887-9.4961-22.961-27.766-22.609-34.09 9.8477-6.4648 44.895-35.582 43.309-120.91-1.2383-66.922-33.926-104.46-92.074-105.7-0.023437 0-0.023437 0.023437-0.046875 0.023437-0.023437 0-0.046875-0.023437-0.070312-0.023437h-0.09375c-58.125 1.2617-90.816 38.781-92.055 105.7-1.6094 85.328 33.438 114.43 43.285 120.91 0.35156 6.3242-0.72266 24.594-22.586 34.09-28.441 12.344-60.551 24.965-74.105 30.055-1.5156 0.58203-3.5 1.1211-5.7617 1.7969-14.652 4.2227-45.172 12.973-50.352 50.586-5.4844 39.621-7.0938 57.867-7.0938 58.055-0.21094 2.2383 1.0977 4.3164 3.1953 5.1328 0.81641 0.30469 82.578 31.5 205.59 31.5 123.01 0 204.77-31.172 205.59-31.5 2.0781-0.81641 3.4062-2.8945 3.1953-5.1328-0.003906-0.1875-1.6133-18.41-7.0977-58.055zm-201.69 84.582c-106.61 0-181.54-23.684-198.36-29.516 0.72266-7.1875 2.6367-24.641 6.6484-53.691 4.293-31.078 28.605-38.078 43.145-42.258 2.5898-0.74609 4.8086-1.3984 6.5352-2.0312 13.625-5.1094 45.941-17.852 74.551-30.238 26.879-11.668 30.262-36.004 28.328-47.25-0.28125-1.5391-1.2617-2.8945-2.6602-3.6172-0.42188-0.21094-41.953-23.008-40.273-113.21 1.1602-62.391 28.789-94.613 82.082-95.801 53.293 1.1914 80.941 33.414 82.086 95.785 1.6562 90.207-39.875 113-40.273 113.19-1.4219 0.72266-2.4258 2.0781-2.6836 3.6406-1.9609 11.223 1.4453 35.559 28.328 47.227 31.898 13.836 64.633 26.508 74.527 30.238 1.7266 0.65234 3.9648 1.3086 6.5586 2.0547 14.535 4.1758 38.875 11.176 43.168 42.258 4.0117 29.074 5.9258 46.504 6.6484 53.691-16.824 5.8477-91.75 29.531-198.36 29.531z"/>
</svg>
